<?xml version="1.0" standalone="no"?><!DOCTYPE svg PUBLIC "-//W3C//DTD SVG 1.1//EN" "http://www.w3.org/Graphics/SVG/1.1/DTD/svg11.dtd"><svg class="icon" height="512" viewBox="0 0 1024 1024" version="1.1" xmlns="http://www.w3.org/2000/svg"><path d="M733.505371 1024H73.259641A73.173891 73.173891 0 0 1 0.142918 950.89471V73.10529A73.173891 73.173891 0 0 1 73.248208 0h660.257163a73.173891 73.173891 0 0 1 73.10529 73.10529v143.283625h-64.335857V73.10529a8.998102 8.998102 0 0 0-8.769433-8.769433H73.259641a8.998102 8.998102 0 0 0-8.769433 8.769433v877.78942a8.998102 8.998102 0 0 0 8.769433 8.769433h660.24573a8.998102 8.998102 0 0 0 8.769433-8.769433V817.558161h64.324423v133.336549a73.173891 73.173891 0 0 1-73.10529 73.10529zM383.79134 621.657935H242.851567a32.162212 32.162212 0 1 1 0-64.324423h140.939773a32.448047 32.448047 0 0 1 32.162212 32.162212 32.013577 32.013577 0 0 1-32.162212 32.162211zM1023.559813 369.013644c-11.696389-84.801679-90.644157-146.782251-177.778254-135.085862a31.899243 31.899243 0 0 0-20.465822 11.696389L500.160693 641.483486a33.351287 33.351287 0 0 0-6.437015 12.862598l-50.284184 212.375785a31.544807 31.544807 0 0 0 10.530181 32.162211 32.745316 32.745316 0 0 0 20.465822 7.603225c4.093165 0 8.769433-0.583104 12.862598-3.51006l201.2282-87.134097a36.255376 36.255376 0 0 0 12.862598-9.947076l315.791072-412.872245a32.733883 32.733883 0 0 0 6.379848-24.010183zM547.529354 704.310132a79.736674 79.736674 0 0 1 52.593734 15.595185 76.603917 76.603917 0 0 1 29.829794 50.878721c0.057167 0.411603 0.137201 0.823206 0.205801 1.234809l-110.115272 47.825998z m135.303097 20.111386a141.900181 141.900181 0 0 0-44.075835-56.02376 143.523727 143.523727 0 0 0-56.401063-25.77093l200.908063-245.143967a92.016168 92.016168 0 0 1 61.351734 18.899444 94.56582 94.56582 0 0 1 34.185927 51.690494z m240.421965-314.499096a161.028293 161.028293 0 0 0-40.016971-45.001942 162.971975 162.971975 0 0 0-52.067797-25.850964l33.934392-41.400415c42.109287 0 80.113977 28.652152 91.227261 69.012125zM551.039414 448.55595H242.851567a32.162212 32.162212 0 1 1 0-64.324423h308.187847a32.448047 32.448047 0 0 1 32.207945 32.150778 32.013577 32.013577 0 0 1-32.207945 32.173645zM551.039414 281.330743H242.851567a32.162212 32.162212 0 1 1 0-64.324423h308.187847a32.448047 32.448047 0 0 1 32.207945 32.127911 31.704875 31.704875 0 0 1-32.207945 32.196512z" /></svg>